<svg id="Logo_Design" data-name="Logo Design" xmlns="http://www.w3.org/2000/svg" viewBox="0 0 1595.33 486"><defs><style>.cls-1{fill:#fff;}</style></defs><path class="cls-1" d="M260.19,788.93c7.27-.75,12.48-1.83,15.65-3.18a11.2,11.2,0,0,0,6.44-6.84Q284,774.1,284,763.15q.31-47.73.64-95.46c-9.16.61-15.6,1.53-19.31,2.87a12.51,12.51,0,0,0-7.75,7.86q-2.17,5.87-3.93,21.11-9.7.83-19.42,1.52,1.78-19.75,3.18-50.69l2.62-2.62q11.72,1.28,23.42,2.38,36.94-.64,73.87-3,12-2.07,23.93-4.31c.86.81,1.72,1.62,2.59,2.42q.27,28.53,2,49.1-9.71,1.48-19.42,2.87-1.78-16.05-3.76-21.88t-7.05-7.51c-3.38-1.14-9.42-1.6-18.09-1.47q-1.3,17.68-2.34,47.95t-1.19,55q-.06,8.8,3,12.46t9.92,3.27a113.2,113.2,0,0,0,12.55-1.48l.94,1.13q-1.12,8-2.24,16.09c-16.73.43-30.3.74-40.71,1.15-8.21.32-21.31,1.27-39.31,2.49Q259.19,796.68,260.19,788.93Z" transform="translate(-234.27 -365.52)"/><path class="cls-1" d="M508.28,736.19q-3.91,19.15-6.69,45l-2.38,3c-30.14,3.34-54.68,5.79-73.62,7.92q-19.89,2.22-40.5,6.48.87-8.05,1.76-16.1c6.64-1.56,11.15-3.91,13.53-7s3.61-8.13,3.65-15.12q.44-45.37.85-90.76c0-5.24-.42-8.64-1.35-10.22s-3-2.2-6.14-1.89a73.27,73.27,0,0,0-7.34,1.18l-1.41-2q1-7.23,2-14.46l4.74-.45c11.2-.6,23.9-1.68,38.11-3.33,35.19-4.11,59.19-8.67,72-12.47l1.88,2.34q-2,9.09-3.58,21.47t-2.16,22.46q-10.53,2.28-21.08,4.46l.54-9.59q0-7.15-1.94-9.85t-8-3c-4-.17-10.76.37-20.23,1.55a55.06,55.06,0,0,0-8.53,1.52,5,5,0,0,0-3.21,2.53,16.45,16.45,0,0,0-1.1,5.6q-1,18.79-1.91,37.59,11.13-1.19,22.25-2.49,5-.65,12.44-2.23t15-3.62l1.88,1.87-3.45,20.72a34.21,34.21,0,0,1-4.73.42c-11.05,1.21-19.81,2.18-26.28,3A162.82,162.82,0,0,0,435,724.39q-.34,17.05-.7,34.12,0,6.66,1,9.4a5.08,5.08,0,0,0,4,3.33c2,.4,5.4.31,10.29-.3,10.42-1.29,18-2.89,22.62-4.71a18.53,18.53,0,0,0,10.12-8.65q3.11-5.91,4.85-18.77,9.72-2.22,19.43-4.51Z" transform="translate(-234.27 -365.52)"/><path class="cls-1" d="M563.9,765.89a46.45,46.45,0,0,1-24.22-21.82q-8.4-15.51-8.25-38.64.17-25.24,10.47-45.74a93.72,93.72,0,0,1,29.2-34.17Q590,611.81,614.85,607a158.94,158.94,0,0,1,18.82-2.4c6.7-.47,12.41-.73,17.14-.75s7.72,0,9,0l1.4,2.8q-.5,1.77-1.71,8t-2.71,16.51q-1.5,10.3-2.28,21.66-11.25,3-22.5,6c0-.63.09-2.12.27-4.46s.27-5,.29-8q.08-10.49-6.29-14.1t-20.09-1q-18.7,3.57-28.62,18.64T567.47,691q-.19,29.31,10.23,43.63t29.37,10.73q13-2.49,20.41-12T637.83,706q11.37-3,22.74-6.11-.74,4.22-2.6,18.4T655.54,745l-2.39,3.35q0,.24-7.95,4.37a192.62,192.62,0,0,1-19.44,8.55,141.17,141.17,0,0,1-24.52,6.89Q579.7,772.21,563.9,765.89Z" transform="translate(-234.27 -365.52)"/><path class="cls-1" d="M690.37,734c6.79-2.75,11.34-5.75,13.65-9s3.48-8.15,3.53-14.82q.3-46.12.62-92.24c0-4.93-.5-8.1-1.6-9.53s-3.37-1.74-6.84-1l-7.11,1.8-1.17-1.65q.87-7.1,1.75-14.19,14.09-3,28.17-6c6.16-1.4,17.92-4.63,35.29-9.83l-1.53,16.06a35.65,35.65,0,0,0-8.89,4.59,11.44,11.44,0,0,0-3.82,5.52,47.72,47.72,0,0,0-1.61,10.37l-1.65,34.66q15.51-3.36,31-6.82a293.27,293.27,0,0,0,28.19-8.48l.24-36.71c0-4.92-.5-8.09-1.59-9.49s-3.37-1.67-6.85-.83l-7.34,2-1.17-1.62q1-7.14,2-14.28,14.91-3.49,29.83-7.06c5.21-1.29,16.65-4.68,34.34-10.27L846.52,571q-8.78,3.42-11.51,6.59t-3.26,10.22q-1.32,21.29-2.33,48.66t-1.13,45.74q-.07,10,1.92,13.09t7.67,1.64c1.73-.44,4.74-1.43,9-3l.94,1.43q-1.12,7.79-2.24,15.56a39.71,39.71,0,0,1-5,1q-18,4-29.11,6.79-16.34,4.28-32.68,8.45,1-7.86,2-15.71a31.3,31.3,0,0,0,10.55-4.7A14.55,14.55,0,0,0,796.5,699,52.93,52.93,0,0,0,798,685.18l.21-30.75q-13,3.06-26,6.06Q767,661.74,758,664.58t-19.43,6.2q-.46,17.13-.94,34.25-.06,9.78,1.81,12.68c1.25,1.93,3.68,2.47,7.32,1.63,1.57-.37,4.5-1.29,8.76-2.77l1.18,1.15q-1.12,7.75-2.24,15.52-17,3.28-28.4,5.87-8.06,1.83-19.77,5.17t-17.65,5.31Q689.48,741.79,690.37,734Z" transform="translate(-234.27 -365.52)"/><path class="cls-1" d="M944.16,618.73q-23.32-29.06-23.32-28.6l-2.13.56q-.37,37.57-.74,75.16c0,4.13.55,6.8,1.72,8s3.26,1.41,6.26.62l10.42-3.22,1.17,1.12q-1.23,7.82-2.47,15.64-3.32.64-12.3,2.65t-18,4.35Q897,697,888,700.21l-11.61,4.06,1.77-16.16q7.33-2.83,10.68-7.16t3.62-11.53L895.9,574q0-7.63-3.72-9.75T876.82,564l-1.64-1.72q.87-7,1.75-14,2.6-.42,11.12-2.15t15.86-3.65q6.15-1.61,13.14-3.79t9.12-3q19.2,26.83,41.35,54.74t22.15,27.42l2.36-.64q0-36.28,0-72.59-.21-5.42-2-7.33t-5.79-.83L976,538.88c-.23-.5-.46-1-.7-1.48q.88-7.62,1.76-15.23,3.31-.63,12.19-2.65t17.87-4.42q7.11-1.9,16-4.76t11.72-3.85l-1.29,16q-8.05,3.36-11.51,7.61t-3.74,11.47l-3.93,127.66-23.93,9.49Q967.47,647.78,944.16,618.73Z" transform="translate(-234.27 -365.52)"/><path class="cls-1" d="M1086.05,640.47q-15.21-5.1-23.26-19.84t-7.9-37.87a111.28,111.28,0,0,1,10-46.23,105.73,105.73,0,0,1,27.54-36.62,101.38,101.38,0,0,1,40.67-21.25q21.32-5.61,36.76-.69a39.82,39.82,0,0,1,23.5,19.64q8.06,14.7,7.9,37.84a112.13,112.13,0,0,1-10.12,46.5,104.7,104.7,0,0,1-69,58.12Q1101.25,645.58,1086.05,640.47Zm69.06-42.76q9.67-16,9.85-40.52.19-31.23-9.87-45.15t-28.77-9q-16.82,4.44-26.25,20.4T1090.46,564q-.21,31.23,9.75,45.12t28.18,9.08Q1145.43,613.68,1155.11,597.71Z" transform="translate(-234.27 -365.52)"/><path class="cls-1" d="M1229,596q9-3.69,12.35-8.8t3.41-15.61q.43-45.68.85-91.36,0-7.38-1.59-9.48c-1.09-1.39-3.38-1.66-6.85-.79l-7.34,2.08-1.17-1.61q1-7.15,2-14.31,15.86-3.86,31.72-7.63c4.42-1.08,10.85-2.9,19.3-5.41l16.7-4.95L1296.58,455c-5.37,1.91-9.29,3.77-11.74,5.55a12.19,12.19,0,0,0-4.77,6.14,50.25,50.25,0,0,0-1.6,10.51q-2.85,36.39-3.19,88.11c0,4.29.34,7.34,1.12,9.13a4.82,4.82,0,0,0,4.23,3q3.07.33,9.46-1.2,11.85-2.84,17.66-6.82t8.71-12q2.89-8.05,4.89-24.46,9.6-3.3,19.19-6.56l1.64,2q-.73,4.7-2.86,21t-3.65,34l-2.39,2.93c-4.26.82-13.49,2.57-27.69,5.37s-27.06,5.62-38.58,8.44q-13,3.18-24.87,7.08T1227,612.46Q1228,604.23,1229,596Z" transform="translate(-234.27 -365.52)"/><path class="cls-1" d="M1390.28,565.5q-15.21-5.91-23.27-21t-7.9-38.23a108.23,108.23,0,0,1,10-45.76,97.91,97.91,0,0,1,27.54-35.21,92.89,92.89,0,0,1,40.68-18.8q21.3-4.23,36.75,1.88t23.51,21.46q8.06,15.36,7.9,38.49A106.61,106.61,0,0,1,1495.37,514a94.31,94.31,0,0,1-27.9,34.71,98.11,98.11,0,0,1-41.15,18.49C1412.43,570,1400.42,569.45,1390.28,565.5ZM1459.34,527q9.67-15.28,9.84-39.82.21-31.21-9.86-45.86c-6.71-9.74-16.31-13.41-28.77-10.91-11.21,2.24-20,8.54-26.25,18.82s-9.5,23.62-9.61,40q-.21,31.23,9.74,45.66c6.63,9.65,16,13.21,28.18,10.78Q1449.67,542.29,1459.34,527Z" transform="translate(-234.27 -365.52)"/><path class="cls-1" d="M1560.85,534.35a48.26,48.26,0,0,1-24.21-22.2q-8.4-15.56-8.25-38.65.16-25.72,10.48-46.19a87.22,87.22,0,0,1,29.31-33.39c12.67-8.59,27.61-14,44.82-16.18a146.41,146.41,0,0,1,19.64-1.05q10.39.12,17.74.78c4.88.44,8,.76,9.45.93l1.64,2.93c-.33,1-.89,3.46-1.71,7.43s-1.68,9.21-2.58,15.73S1655.55,418,1655,425.3q-11.37,2-22.74,4.15a37.5,37.5,0,0,0,.51-4.58q.26-3.6.29-8.6.08-10-5.94-13.47c-4-2.3-10.67-2.9-20-1.72-14.36,1.84-25.12,7.67-32.28,17.34s-10.8,23.51-10.92,41.45q-.21,29.31,10.46,43.82c7.11,9.69,17.06,13.65,29.85,12a48.14,48.14,0,0,0,11.61-2.89,49.41,49.41,0,0,0,8.18-4c2-1.27,3.21-2.08,3.69-2.46l.15-22.63q0-6.9-2.07-8.92c-1.41-1.33-4.25-1.75-8.51-1.23q-6.15.75-12.31,1.54l-1.17-1.75q1.25-8.61,2.48-17.22c3.79-.48,7-.8,9.7-1q13.26-1.14,23.2-2.24c4.9-.55,9.71-1.22,14.45-2s7.82-1.35,9.24-1.65l1.59,8.89a19.86,19.86,0,0,0-6.08,7.15,34.46,34.46,0,0,0-2.79,11.47q-.77,7.35-.86,21.39-.09,14.3,1.52,20.55c-.72,1-1.43,2-2.15,3.08,0,.16-2.65,1.38-8,3.69a172,172,0,0,1-20.39,7.07,185,185,0,0,1-27.36,5.57C1583.91,540,1571.39,538.81,1560.85,534.35Z" transform="translate(-234.27 -365.52)"/><path class="cls-1" d="M1719.29,509.75c6.32-1.22,10.94-2.65,13.87-4.33a12.84,12.84,0,0,0,6-6.77q1.58-4.26,1.63-12.83c0-2.45,0-4.91,0-7.37a43.67,43.67,0,0,0-1.34-11.59,61.7,61.7,0,0,0-5.36-12.55q-11.44-21.93-22.9-43.71-5.84-11.72-11-16.31t-15.82-5.59l-.46-1.14q.87-7.57,1.75-15.15c2.21-.19,6.35-.43,12.43-.68s12-.57,17.87-1c5-.35,11.92-1.08,20.61-2.14s14.44-1.68,17.29-2l.93,2.1q-.64,6.69-1.27,13.38-8.07.87-11.27,2.72a6,6,0,0,0-3.23,5.41c0,3,5.26,15.79,15.84,38.46q4.67,10.73,4.43,10.27l2.13-.09q9.72-20.4,19.44-40.69,3.6-7.24,3.63-11.29c0-1.74-1-3-2.93-3.84s-5.08-1.31-9.34-1.48l-.47-1.17q.87-6.82,1.75-13.63c3.79,0,7.57.07,11.36.12,8.52.08,15.15.12,19.88,0q6.63-.09,14.21-.5c5-.26,8.29-.45,9.71-.61l.94,1.67q-.88,7.13-1.75,14.27a33.86,33.86,0,0,0-15.1,9.35q-5.61,6.24-14,21.38Q1787.38,434,1776,455.71a31.85,31.85,0,0,0-4,12.28q-.63,6.21-.74,22.63-.06,7.86,2.29,11c1.56,2.08,4.4,3.06,8.5,2.94,2.85-.09,5.33-.23,7.46-.44a42.17,42.17,0,0,0,4.39-.58l.94,1.17q-1.12,8-2.24,16c-2.84-.09-8.13-.17-15.86-.15s-15.31.2-22.73.55q-8.52.39-20.6,2.16c-8.06,1.2-13.35,2.07-15.87,2.57Q1718.4,517.78,1719.29,509.75Z" transform="translate(-234.27 -365.52)"/><path class="cls-1" d="M579.25,546.12c6.21.65,15.39,1.94,26,2.45s22.62.69,34.32.18c23.42-1,45.55-4.14,53.36-5.21,56.88-8.32,107.86-18.79,158.52-30.94s101-25.93,156.7-41.7q33.09-9.45,66.44-18.64l33.53-8.61c11.18-2.93,22.38-5.44,33.57-8.18,44.77-10.73,89.73-21.27,135.14-29.25l24.6-4.15,26.16-3.58c4.43-.67,8.92-1.11,13.43-1.54l13.53-1.34c9-.94,18-1.61,26.94-2.16,17.82-1.1,35.26-1.5,51.12-.11a167.66,167.66,0,0,1,41,8.71c-4.51-.43-12.37-2.56-22.34-3.52l-3.79-.5c-1.29-.17-2.63-.18-4-.29l-8.33-.54c-2.84-.26-5.78-.12-8.72-.21s-5.93-.17-8.92,0c-6,.22-12,.29-17.79.75l-8.51.55-8,.7c-10.33.92-19,1.79-24,2.49-24.87,2.83-59.54,8.16-97.84,15.89s-80.2,17.79-120.09,27.55c-10,2.48-19.87,4.76-29.42,7.29l-28,7.24c-4.53,1.14-9,2.36-13.29,3.6l-12.74,3.57-23.62,6.63c-29.65,8.47-51.51,14.55-59.66,16.78-44.85,12.29-87.13,23.56-129.74,33.46s-85.68,17.95-131.65,24.32c-13.19,1.74-41,5.54-68.63,5.83a282.94,282.94,0,0,1-39-2.06A155.45,155.45,0,0,1,579.25,546.12Z" transform="translate(-234.27 -365.52)"/><path class="cls-1" d="M579.25,817.33c6.21.65,15.39,1.95,26,2.45s22.62.69,34.32.19c23.42-1,45.55-4.15,53.36-5.22,56.89-8.32,107.86-18.79,158.52-30.93s101-26,156.7-41.71q33.08-9.47,66.44-18.64l33.53-8.61c11.18-2.93,22.38-5.44,33.57-8.18,44.77-10.73,89.73-21.26,135.14-29.25l24.6-4.15,26.16-3.59c4.43-.66,8.92-1.1,13.43-1.53l13.53-1.34c9-.94,18-1.61,26.94-2.16,17.82-1.1,35.26-1.5,51.12-.1a167.22,167.22,0,0,1,41,8.7c-4.51-.43-12.37-2.56-22.34-3.52l-3.79-.5c-1.29-.17-2.63-.18-4-.29l-8.33-.54c-2.84-.26-5.78-.12-8.72-.21s-5.93-.16-8.92,0c-6,.22-12,.29-17.79.75l-8.51.55-8,.7c-10.33.92-19,1.79-24,2.49-24.87,2.82-59.54,8.17-97.84,15.89s-80.2,17.79-120.09,27.55c-10,2.48-19.87,4.76-29.42,7.29l-28,7.24c-4.53,1.14-9,2.36-13.29,3.6l-12.74,3.57-23.62,6.63c-29.65,8.47-51.51,14.55-59.66,16.78-44.85,12.29-87.13,23.56-129.74,33.46-42.57,10.05-85.68,18-131.65,24.32-13.19,1.74-41,5.54-68.63,5.83a281.38,281.38,0,0,1-39-2.06A155.45,155.45,0,0,1,579.25,817.33Z" transform="translate(-234.27 -365.52)"/><path class="cls-1" d="M761.25,504.63c7.12-2.36,21.48-5.85,35.18-9.05,13.65-3.48,26.67-6.6,31.28-7.7l24.47-6.23,11.89-3,11.67-3.11,23-6,22.62-6.15c15.08-4,30.09-8.32,45.57-12.52l48-13.52q19.8-5.67,39.74-11.18l19.93-5.53,20.07-5.13,20.09-5.09,20.11-4.78c13.4-3.16,26.79-6.32,40.23-9.32,9.32-2.09,19.47-4.4,29.93-6.62s21.27-4.21,31.75-6.17,20.73-3.48,30.09-4.78,17.85-2.28,24.87-2.89c-5,2.15-18.84,5.42-32.9,8.48l-10.46,2.23-9.7,2.3-14.07,3.35c-7.28,1.86-16.06,3.82-25.81,6.33l-31.9,8c-22.7,5.73-47.85,11.81-71.49,18.17l-17.5,4.58-16.66,4.7-29.69,8.38c-17.74,5.06-30.8,8.76-35.68,10.08C942.14,467.12,895,480.74,840.61,492.06c-7.77,1.76-24.2,4.88-40.35,7.79C784.07,502.55,768.09,504.63,761.25,504.63Z" transform="translate(-234.27 -365.52)"/><path class="cls-1" d="M874.07,446.58c7.84-4.06,32.23-11.59,37.46-13.2,9.52-2.92,18.6-5.63,27.48-8.19l13.18-3.76,13-3.82c17.31-5.08,34.69-10,53.94-15.39,15.25-4.32,30.62-8.57,46-12.79l11.54-3.12,11.61-2.89,23.23-5.7c21.48-5,50.91-11.1,67.34-12.2-5.42,3.74-31.29,10.22-38.1,12.25-16.7,4.89-46.84,12.88-74.09,20.64s-51.82,14.77-57.45,16.29c-15.51,4.2-30,8.41-44.55,12.5-7.24,2.11-14.56,4-22,5.81s-15,3.65-22.84,5.4C910.82,440.42,882.23,447.18,874.07,446.58Z" transform="translate(-234.27 -365.52)"/><path class="cls-1" d="M874.07,851.48c7.84-4.06,32.23-11.59,37.46-13.2,9.52-2.92,18.6-5.63,27.48-8.19l13.18-3.76,13-3.82c17.31-5.08,34.69-10,53.94-15.39,15.25-4.32,30.62-8.57,46-12.78l11.54-3.12,11.61-2.9,23.23-5.69c21.48-5,50.91-11.1,67.34-12.21-5.42,3.74-31.29,10.23-38.1,12.25-16.7,4.9-46.84,12.89-74.09,20.65s-51.82,14.76-57.45,16.28c-15.51,4.2-30,8.4-44.55,12.5-7.24,2.11-14.56,4-22,5.81s-15,3.65-22.84,5.4C910.82,845.32,882.23,852.08,874.07,851.48Z" transform="translate(-234.27 -365.52)"/><path class="cls-1" d="M761.25,841.18c7.12-2.36,21.48-5.85,35.18-9.06,13.65-3.47,26.67-6.59,31.28-7.69l24.47-6.23,11.89-3,11.67-3.11,23-6,22.62-6.16c15.08-4,30.09-8.31,45.57-12.51l48-13.53q19.8-5.65,39.74-11.17l19.93-5.53,20.07-5.13,20.09-5.09,20.11-4.78c13.4-3.16,26.79-6.33,40.23-9.32,9.32-2.09,19.47-4.4,29.93-6.62s21.27-4.21,31.75-6.17,20.73-3.48,30.09-4.78,17.85-2.29,24.87-2.89c-5,2.15-18.84,5.41-32.9,8.47l-10.46,2.24-9.7,2.3-14.07,3.35c-7.28,1.86-16.06,3.81-25.81,6.32l-31.9,8c-22.7,5.73-47.85,11.81-71.49,18.17l-17.5,4.58-16.66,4.7-29.69,8.38c-17.74,5.06-30.8,8.76-35.68,10.08C942.14,803.67,895,817.29,840.61,828.61c-7.77,1.76-24.2,4.88-40.35,7.79C784.07,839.1,768.09,841.18,761.25,841.18Z" transform="translate(-234.27 -365.52)"/><path class="cls-1" d="M579.25,782.17c6.09.18,17.87,1.46,29.16,1.77s22,.06,25.79-.09c27.55-1,52.31-4.48,77.09-8.27,12.4-1.91,24.83-3.93,37.51-6.2L768.15,766l20-3.93c43.3-8.59,86.51-18.92,129.41-29.77,29.79-7.41,70.32-18,92.89-21.46-7.58,4.61-43.35,14.93-52.82,17.87-11.54,3.72-27.86,8.39-46.07,13.51-18.25,5-38.39,10.33-57.71,14.92l-14.24,3.46-13.66,3c-8.85,1.93-17.07,3.87-24.38,5.31l-29.4,5.76-32.41,5.53c-10.57,1.8-21,3.41-31.45,4.92-20.91,3-42,5.36-64.61,5.45a278.51,278.51,0,0,1-33.36-1.59A172.61,172.61,0,0,1,591.72,786a73.47,73.47,0,0,1-7.34-2A48.9,48.9,0,0,1,579.25,782.17Z" transform="translate(-234.27 -365.52)"/></svg>